<svg width="88" height="28" viewBox="0 0 88 28" fill="none" xmlns="http://www.w3.org/2000/svg">
<path fill-rule="evenodd" clip-rule="evenodd" d="M15.4617 13.7026C15.5255 13.8095 15.5654 13.9327 15.5654 14.0661C15.5654 14.2235 15.5116 14.3673 15.4253 14.4854L25.4228 24.4829L25.6667 24.7279H9.0804L2.33333 17.9808V10.2471L9.0804 3.5H25.6667L15.4617 13.7026ZM11.5903 17.5741C11.6656 17.6872 11.71 17.8233 11.71 17.9694C11.7098 18.1421 11.6457 18.2983 11.5436 18.4217L17.5638 24.4419H23.6102C23.6159 24.2706 23.6516 24.1014 23.7173 23.9429C23.7879 23.7724 23.8907 23.6172 24.0203 23.486L15.2134 14.6779C15.1068 14.7411 14.984 14.7804 14.8511 14.7804C14.7173 14.7804 14.5935 14.7408 14.4865 14.6768L11.5903 17.5741ZM7.58333 14.1139L10.5422 17.4202C10.6656 17.318 10.8228 17.2551 10.9956 17.255C11.1403 17.255 11.275 17.2984 11.3875 17.3724L14.2746 14.4854C14.1887 14.3675 14.1367 14.223 14.1367 14.0661C14.1367 13.9331 14.1747 13.8093 14.2381 13.7026L11.4832 10.9478C11.3705 11.0223 11.2366 11.0673 11.0913 11.0674C10.8693 11.0674 10.6731 10.9643 10.5422 10.8053L7.58333 14.1139ZM11.5413 9.80501C11.7007 9.93595 11.8045 10.1318 11.8045 10.3542C11.8044 10.4993 11.7605 10.6335 11.686 10.7461L14.4307 13.4907C14.5487 13.4043 14.6936 13.3517 14.8511 13.3517C15.0083 13.3517 15.1524 13.4046 15.2703 13.4907L24.0203 4.74072C23.8908 4.60952 23.7878 4.45422 23.7173 4.28385C23.6518 4.12554 23.6159 3.95696 23.6102 3.78597H17.5627L11.5413 9.80501Z" fill="#0D0E0F"/>
<path d="M86.8666 19.8005C86.2644 19.8005 85.7935 19.6454 85.454 19.3352C85.1146 19.0249 84.9448 18.554 84.9448 17.9224L84.9612 8H86.7024V17.7562C86.7024 18.1551 86.8995 18.3546 87.2937 18.3546H88V19.8005H86.8666Z" fill="#0D0E0F"/>
<path d="M78.2278 20C77.308 20 76.5797 19.7895 76.0432 19.3684C75.5066 18.9363 75.2383 18.3435 75.2383 17.59C75.2383 16.8366 75.4628 16.2438 75.9118 15.8116C76.3607 15.3795 77.067 15.0693 78.0307 14.8809L81.0366 14.2992C81.0366 12.9363 80.4124 12.2549 79.1641 12.2549C78.08 12.2549 77.4229 12.7479 77.193 13.7341L75.3861 13.6177C75.5504 12.7313 75.961 12.0332 76.6181 11.5235C77.2861 11.0139 78.1347 10.759 79.1641 10.759C80.3358 10.759 81.2282 11.0803 81.8415 11.723C82.4656 12.3546 82.7777 13.2465 82.7777 14.3989V17.8393C82.7777 18.0499 82.816 18.1994 82.8927 18.2881C82.9694 18.3657 83.0898 18.4044 83.2541 18.4044H83.5662V19.8006C83.4567 19.8338 83.2431 19.8504 82.9256 19.8504C82.4109 19.8504 82.0112 19.7396 81.7265 19.518C81.4418 19.2964 81.2611 18.9363 81.1844 18.4377C80.9654 18.903 80.5876 19.2798 80.051 19.5679C79.5145 19.856 78.9067 20 78.2278 20ZM78.5235 18.6039C79.29 18.6039 79.8977 18.3823 80.3467 17.9391C80.8066 17.4958 81.0366 16.9141 81.0366 16.1939V15.6288L78.4906 16.1274C77.9759 16.2271 77.6036 16.3823 77.3737 16.5928C77.1547 16.8033 77.0451 17.0803 77.0451 17.4238C77.0451 17.8006 77.1711 18.0942 77.4229 18.3047C77.6857 18.5042 78.0526 18.6039 78.5235 18.6039Z" fill="#0D0E0F"/>
<path d="M70.4801 20C69.2865 20 68.3502 19.7285 67.6713 19.1856C66.9923 18.6427 66.62 17.9169 66.5543 17.0083L68.3612 16.9252C68.5254 17.9889 69.2317 18.5208 70.4801 18.5208C71.0385 18.5208 71.4711 18.4321 71.7777 18.2548C72.0953 18.0665 72.2541 17.7839 72.2541 17.4072C72.2541 17.1745 72.1993 16.9917 72.0898 16.8587C71.9803 16.7147 71.7777 16.5928 71.482 16.4931C71.1864 16.3823 70.7484 16.277 70.168 16.1773C69.3029 16.0222 68.624 15.8283 68.1312 15.5956C67.6384 15.3629 67.288 15.0803 67.0799 14.7479C66.8719 14.4155 66.7679 14 66.7679 13.5014C66.7679 12.6704 67.0745 12.0055 67.6877 11.5069C68.3009 11.0083 69.1605 10.759 70.2665 10.759C71.3287 10.759 72.1719 11.0305 72.7961 11.5734C73.4203 12.1163 73.7981 12.8144 73.9295 13.6676L72.1391 13.7673C72.0515 13.2909 71.8434 12.9197 71.5149 12.6537C71.1973 12.3767 70.7757 12.2382 70.2501 12.2382C69.7026 12.2382 69.2865 12.349 69.0018 12.5706C68.717 12.7812 68.5747 13.0693 68.5747 13.4349C68.5747 13.8227 68.717 14.1108 69.0018 14.2992C69.2974 14.4875 69.8066 14.6427 70.5294 14.7645C71.4273 14.9086 72.1336 15.097 72.6483 15.3296C73.1629 15.5512 73.5243 15.8283 73.7324 16.1607C73.9514 16.482 74.0609 16.892 74.0609 17.3906C74.0609 18.1994 73.7269 18.8366 73.0589 19.3019C72.4019 19.7673 71.5423 20 70.4801 20Z" fill="#0D0E0F"/>
<path d="M61.3042 20C60.472 20 59.7438 19.8116 59.1196 19.4349C58.4954 19.0582 58.0081 18.5208 57.6577 17.8227C57.3182 17.1247 57.1485 16.3103 57.1485 15.3795C57.1485 14.4488 57.3182 13.6344 57.6577 12.9363C58.0081 12.2382 58.4954 11.7008 59.1196 11.3241C59.7438 10.9474 60.472 10.759 61.3042 10.759C62.1255 10.759 62.8482 10.9529 63.4724 11.3407C64.1075 11.7175 64.5948 12.2549 64.9343 12.9529C65.2737 13.6399 65.4435 14.4488 65.4435 15.3795C65.4435 16.3103 65.2737 17.1247 64.9343 17.8227C64.5948 18.5097 64.1075 19.0471 63.4724 19.4349C62.8482 19.8116 62.1255 20 61.3042 20ZM61.3042 18.4709C62.0379 18.4709 62.6073 18.1994 63.0125 17.6565C63.4286 17.1136 63.6366 16.3546 63.6366 15.3795C63.6366 14.4044 63.4286 13.6454 63.0125 13.1025C62.6073 12.5596 62.0379 12.2881 61.3042 12.2881C60.5705 12.2881 59.9956 12.5596 59.5795 13.1025C59.1634 13.6454 58.9553 14.4044 58.9553 15.3795C58.9553 16.3546 59.1634 17.1136 59.5795 17.6565C59.9956 18.1994 60.5705 18.4709 61.3042 18.4709Z" fill="#0D0E0F"/>
<path d="M55.0501 19.8005C54.4478 19.8005 53.9769 19.6454 53.6374 19.3352C53.298 19.0249 53.1282 18.554 53.1282 17.9224L53.1447 8H54.8858V17.7562C54.8858 18.1551 55.0829 18.3546 55.4771 18.3546H56.1834V19.8005H55.0501Z" fill="#0D0E0F"/>
<path d="M47.3529 20C46.5206 20 45.7924 19.8116 45.1683 19.4349C44.5441 19.0582 44.0568 18.5208 43.7064 17.8227C43.3669 17.1247 43.1972 16.3103 43.1972 15.3795C43.1972 14.4488 43.3669 13.6344 43.7064 12.9363C44.0568 12.2382 44.5441 11.7008 45.1683 11.3241C45.7924 10.9474 46.5206 10.759 47.3529 10.759C48.1742 10.759 48.8969 10.9529 49.5211 11.3407C50.1562 11.7175 50.6435 12.2549 50.983 12.9529C51.3224 13.6399 51.4922 14.4488 51.4922 15.3795C51.4922 16.3103 51.3224 17.1247 50.983 17.8227C50.6435 18.5097 50.1562 19.0471 49.5211 19.4349C48.8969 19.8116 48.1742 20 47.3529 20ZM47.3529 18.4709C48.0866 18.4709 48.656 18.1994 49.0612 17.6565C49.4773 17.1136 49.6853 16.3546 49.6853 15.3795C49.6853 14.4044 49.4773 13.6454 49.0612 13.1025C48.656 12.5596 48.0866 12.2881 47.3529 12.2881C46.6192 12.2881 46.0443 12.5596 45.6282 13.1025C45.2121 13.6454 45.004 14.4044 45.004 15.3795C45.004 16.3546 45.2121 17.1136 45.6282 17.6565C46.0443 18.1994 46.6192 18.4709 47.3529 18.4709Z" fill="#0D0E0F"/>
<path d="M34 8H35.774V13.6343L40.6853 8H42.837L38.3692 13.1524L43.1327 19.8005H41.0466L37.1866 14.4155L35.774 16.0111V19.8005H34V8Z" fill="#0D0E0F"/>
</svg>
